<?xml version="1.0" encoding="utf-8"?>
<!-- Generator: Adobe Illustrator 19.0.0, SVG Export Plug-In . SVG Version: 6.00 Build 0)  -->
<svg version="1.1" id="Camada_1" xmlns="http://www.w3.org/2000/svg" xmlns:xlink="http://www.w3.org/1999/xlink" x="0px" y="0px"
	 viewBox="0 0 800 800" style="enable-background:new 0 0 800 800;" xml:space="preserve">
<style type="text/css">
	.st0{clip-path:url(#XMLID_30_);fill:#161A31;}
	.st1{clip-path:url(#XMLID_30_);}
	.st2{fill:url(#XMLID_31_);}
	.st3{fill:#FFFFFF;}
	.st4{fill:url(#XMLID_32_);}
	.st5{fill:url(#XMLID_33_);}
	.st6{fill:url(#XMLID_34_);}
	.st7{fill:url(#XMLID_35_);}
	.st8{fill:url(#XMLID_36_);}
	.st9{fill:url(#XMLID_38_);}
	.st10{fill:url(#XMLID_40_);}
</style>
<g id="XMLID_2_">
	<defs>
		<rect id="XMLID_3_" x="0" y="0" width="800" height="800"/>
	</defs>
	<clipPath id="XMLID_30_">
		<use xlink:href="#XMLID_3_"  style="overflow:visible;"/>
	</clipPath>
	<rect id="XMLID_29_" x="-24.6" y="-209.1" class="st0" width="849.2" height="1198.2"/>
	<g id="XMLID_4_" class="st1">
		<linearGradient id="XMLID_31_" gradientUnits="userSpaceOnUse" x1="396.6223" y1="66.5791" x2="396.6223" y2="639.8692">
			<stop  offset="0" style="stop-color:#70C3B8"/>
			<stop  offset="1" style="stop-color:#0C64AE"/>
		</linearGradient>
		<path id="XMLID_27_" class="st2" d="M653.7,173.1C585,104.4,493.7,66.6,396.6,66.6s-188.4,37.8-257.1,106.5
			C70.8,241.8,33,333.1,33,430.2c0,69,19.4,134.8,54.2,191c2-1.6,4.1-2.9,6.3-4.1c-33.9-55-52.9-119.4-52.9-186.9
			c0-196.3,159.7-356.1,356.1-356.1s356.1,159.7,356.1,356.1c0,73.8-22.6,143.9-62.8,202.3c1.6,2.3,2.9,4.8,4,7.4
			c42.5-60.2,66.4-133,66.4-209.7C760.2,333.1,722.4,241.8,653.7,173.1z"/>
		<g id="XMLID_13_">
			<path id="XMLID_25_" class="st3" d="M159.7,712.5H98.2v-77.8h22.6v66.2h38.9V712.5z"/>
			<path id="XMLID_23_" class="st3" d="M227.7,713.4c-10,0-18.4-1.8-25.3-5.4c-6.9-3.6-10.4-8-10.4-13.1v-60.2h22.1v60.1
				c0,1.9,1.3,3.4,3.8,4.8c2.5,1.3,5.6,2,9.2,2c3.6,0,6.6-0.7,9.1-2c2.5-1.3,3.8-2.9,3.8-4.8v-60.1h23.5v60.2
				c0,5.2-3.5,9.6-10.5,13.2C246,711.6,237.6,713.4,227.7,713.4z"/>
			<path id="XMLID_21_" class="st3" d="M325.7,634.6l29.9,52.4v-52.4h22.6v77.9H354l-31-49.9v49.9h-22.6v-77.9H325.7z"/>
			<path id="XMLID_19_" class="st3" d="M415.2,712.5v-77.9h64.2v11.8h-41.7v21.2h30.4v11.8h-30.4v21.2h41.7v11.8H415.2z"/>
			<path id="XMLID_17_" class="st3" d="M535.8,646.5h-24v-11.8h70.4v11.8h-23.9v66h-22.6V646.5z"/>
			<path id="XMLID_14_" class="st3" d="M625.7,694.6l-5.5,17.9h-23.5l25.4-77.8h31l25.1,77.8h-23.7l-5.3-17.9H625.7z M637.5,652.5
				l-8.4,30.7h16.7L637.5,652.5z"/>
		</g>
		<g id="XMLID_5_">
			<linearGradient id="XMLID_32_" gradientUnits="userSpaceOnUse" x1="544.5642" y1="203.6156" x2="589.7787" y2="203.6156">
				<stop  offset="0" style="stop-color:#70C3B8"/>
				<stop  offset="1" style="stop-color:#0C64AE"/>
			</linearGradient>
			<path id="XMLID_12_" class="st4" d="M568.8,183l5.6,11.3c0.3,0.5,0.8,0.9,1.4,1l12.5,1.8c1.5,0.2,2.1,2,1,3.1l-9.1,8.8
				c-0.4,0.4-0.6,1-0.5,1.6l2.1,12.5c0.3,1.5-1.3,2.6-2.6,1.9l-11.2-5.9c-0.5-0.3-1.1-0.3-1.7,0l-11.2,5.9c-1.3,0.7-2.9-0.4-2.6-1.9
				l2.1-12.5c0.1-0.6-0.1-1.2-0.5-1.6l-9.1-8.8c-1.1-1-0.5-2.8,1-3.1l12.5-1.8c0.6-0.1,1.1-0.5,1.4-1l5.6-11.3
				C566.2,181.7,568.1,181.7,568.8,183z"/>
			<linearGradient id="XMLID_33_" gradientUnits="userSpaceOnUse" x1="368.2276" y1="248.8301" x2="413.4421" y2="248.8301">
				<stop  offset="0" style="stop-color:#70C3B8"/>
				<stop  offset="1" style="stop-color:#0C64AE"/>
			</linearGradient>
			<path id="XMLID_11_" class="st5" d="M392.4,228.2l5.6,11.3c0.3,0.5,0.8,0.9,1.4,1l12.5,1.8c1.5,0.2,2.1,2,1,3.1l-9.1,8.8
				c-0.4,0.4-0.6,1-0.5,1.6l2.1,12.5c0.3,1.5-1.3,2.6-2.6,1.9l-11.2-5.9c-0.5-0.3-1.1-0.3-1.7,0l-11.2,5.9c-1.3,0.7-2.9-0.4-2.6-1.9
				l2.1-12.5c0.1-0.6-0.1-1.2-0.5-1.6l-9.1-8.8c-1.1-1-0.5-2.8,1-3.1l12.5-1.8c0.6-0.1,1.1-0.5,1.4-1l5.6-11.3
				C389.9,226.9,391.8,226.9,392.4,228.2z"/>
			<linearGradient id="XMLID_34_" gradientUnits="userSpaceOnUse" x1="535.5058" y1="402.5595" x2="574.7228" y2="402.5595">
				<stop  offset="0" style="stop-color:#70C3B8"/>
				<stop  offset="1" style="stop-color:#0C64AE"/>
			</linearGradient>
			<path id="XMLID_10_" class="st6" d="M556.5,384.7l4.9,9.8c0.2,0.5,0.7,0.8,1.2,0.9l10.9,1.6c1.3,0.2,1.8,1.8,0.9,2.7l-7.9,7.7
				c-0.4,0.4-0.5,0.9-0.4,1.4l1.9,10.8c0.2,1.3-1.1,2.2-2.3,1.6l-9.7-5.1c-0.5-0.2-1-0.2-1.4,0l-9.7,5.1c-1.1,0.6-2.5-0.4-2.3-1.6
				l1.9-10.8c0.1-0.5-0.1-1-0.4-1.4l-7.9-7.7c-0.9-0.9-0.4-2.5,0.9-2.7l10.9-1.6c0.5-0.1,0.9-0.4,1.2-0.9l4.9-9.8
				C554.3,383.5,555.9,383.5,556.5,384.7z"/>
			<linearGradient id="XMLID_35_" gradientUnits="userSpaceOnUse" x1="278.5105" y1="330.5493" x2="548.4938" y2="330.5493">
				<stop  offset="0" style="stop-color:#70C3B8"/>
				<stop  offset="1" style="stop-color:#0C64AE"/>
			</linearGradient>
			<path id="XMLID_9_" class="st7" d="M521.7,255.5c-1.9-5.4-7.9-8.2-13.3-6.3l-24.8,8.9c-2.6,0.9-4.7,2.8-5.9,5.4
				c-1.2,2.5-1.3,5.3-0.4,7.9l0.9,2.4c0,0,0,0,0,0c0,0.1,0,0.2,0,0.3c0,0.3-0.2,0.6-0.5,0.7l-191.6,68.8c-6,2.2-9.1,8.8-7,14.7
				l16.7,46.4c1,2.9,3.1,5.2,5.9,6.5c2.8,1.3,5.9,1.5,8.8,0.4L502.2,343c0,0,0,0,0,0c0,0,0,0,0,0c0.2-0.1,0.4,0,0.5,0
				c0.2,0.1,0.4,0.2,0.4,0.4c0,0,0,0,0,0l0.3,0.9c1.9,5.4,7.9,8.2,13.3,6.3l24.8-8.9c2.6-0.9,4.7-2.8,5.9-5.4
				c1.2-2.5,1.3-5.3,0.4-7.9L521.7,255.5z"/>
			<linearGradient id="XMLID_36_" gradientUnits="userSpaceOnUse" x1="203.4574" y1="403.024" x2="285.5044" y2="403.024">
				<stop  offset="0" style="stop-color:#70C3B8"/>
				<stop  offset="1" style="stop-color:#0C64AE"/>
			</linearGradient>
			<path id="XMLID_8_" class="st8" d="M235.7,426.9c0,0,0-0.1,0-0.1c0-0.1,0-0.1,0-0.2c0,0,0,0,0-0.1c0,0,0,0,0-0.1
				c0,0,0-0.1,0.1-0.1c0,0,0.1-0.1,0.1-0.1c0,0,0.1-0.1,0.1-0.1c0,0,0.1-0.1,0.1-0.1c0,0,0,0,0.1,0c0,0,0,0,0.1,0c0.1,0,0.1,0,0.2,0
				c0,0,0.1,0,0.1,0c0,0,0.1,0,0.1,0c1.1,0.3,2.2,0.2,3.2-0.1l42.1-15.1c2.8-1,4.3-4.2,3.3-7L272,367.1c-0.5-1.4-1.5-2.5-2.8-3.1
				c-1.3-0.6-2.8-0.7-4.2-0.2l-42.1,15.1c-1,0.4-1.9,1-2.5,1.9c0,0,0,0-0.1,0c0,0-0.1,0.1-0.1,0.1c0,0-0.1,0.1-0.1,0.1
				c0,0,0,0-0.1,0c0,0,0,0-0.1,0c0,0-0.1,0-0.1,0c0,0-0.1,0-0.1,0c0,0-0.1,0-0.1,0c0,0-0.1,0-0.1-0.1c0,0,0,0-0.1,0c0,0,0,0,0-0.1
				c0,0-0.1-0.1-0.1-0.1c0,0-0.1-0.1-0.1-0.1c0,0,0,0,0-0.1l-1.8-5c-0.6-1.7-1.8-3-3.5-3.8c-1.6-0.8-3.5-0.9-5.2-0.3l-0.7,0.3
				c-3.5,1.3-5.3,5.1-4,8.6l20.7,57.6c1.3,3.5,5.1,5.3,8.6,4.1l0.7-0.3c3.5-1.3,5.3-5.1,4.1-8.6L235.7,426.9
				C235.7,427,235.7,427,235.7,426.9z"/>
			<linearGradient id="XMLID_38_" gradientUnits="userSpaceOnUse" x1="362.2578" y1="406.7695" x2="417.9636" y2="406.7695">
				<stop  offset="0" style="stop-color:#70C3B8"/>
				<stop  offset="1" style="stop-color:#0C64AE"/>
			</linearGradient>
			<path id="XMLID_7_" class="st9" d="M372.5,422.8c4.9,4.1,11.2,6.3,17.6,6.3c7.1,0,13.9-2.7,19.1-7.6c5.7-5.3,8.8-12.5,8.8-20.3
				c0-6-2-11.9-5.6-16.7l-50.1,18C362.6,410.4,366.3,417.8,372.5,422.8z"/>
			<linearGradient id="XMLID_40_" gradientUnits="userSpaceOnUse" x1="280.4852" y1="519.8003" x2="502.6614" y2="519.8003">
				<stop  offset="0" style="stop-color:#70C3B8"/>
				<stop  offset="1" style="stop-color:#0C64AE"/>
			</linearGradient>
			<path id="XMLID_6_" class="st10" d="M408.9,459.9v-30.3c-5.3,4.4-11.9,6.9-18.8,6.9c-6.2,0-12.3-2-17.3-5.7v29.1
				c0,0.4-0.3,0.8-0.8,0.8h-11.6c-3.2,0-5.8,2.6-5.8,5.8v0.5c0,3.2,2.6,5.8,5.8,5.8h2c0,0,0,0,0.1,0c0.1,0,0.1,0,0.2,0
				c0,0,0.1,0,0.1,0.1c0,0,0,0,0.1,0c0,0,0,0,0.1,0.1c0,0,0.1,0.1,0.1,0.1c0,0,0.1,0.1,0.1,0.1c0,0,0,0.1,0.1,0.1c0,0,0,0.1,0,0.2
				c0,0,0,0,0,0.1c0,0,0,0,0,0.1c0,0.1,0,0.1,0,0.1c0,0.1,0,0.1-0.1,0.1c0,0,0,0,0,0.1l-81.1,126.2c-1.9,3-1.8,6.9,0.1,9.8h28.8
				l80.1-124.6c0,0,0,0,0,0c0,0,0.1-0.1,0.1-0.1c0,0,0.1-0.1,0.1-0.1c0,0,0,0,0,0c0,0,0.1,0,0.1,0c0,0,0.1,0,0.1-0.1
				c0.1,0,0.1,0,0.2,0c0,0,0.1,0,0.1,0c0.1,0,0.1,0,0.2,0.1c0,0,0.1,0,0.1,0c0,0,0,0,0,0c0,0,0.1,0.1,0.1,0.1c0,0,0.1,0.1,0.1,0.1
				c0,0,0,0,0,0l80.1,124.6h28.8c2-2.9,2-6.8,0.1-9.8l-81.1-126.2c0,0,0,0,0-0.1c0,0,0-0.1-0.1-0.1c0-0.1,0-0.1,0-0.2c0,0,0,0,0-0.1
				c0,0,0,0,0-0.1c0-0.1,0-0.1,0-0.2c0,0,0-0.1,0.1-0.1c0,0,0-0.1,0.1-0.1c0,0,0.1-0.1,0.1-0.1c0,0,0,0,0.1-0.1c0,0,0,0,0.1,0
				c0,0,0.1,0,0.1-0.1c0.1,0,0.1,0,0.2,0c0,0,0,0,0.1,0h0.5c3.2,0,5.8-2.6,5.8-5.8v-0.5c0-3.2-2.6-5.8-5.8-5.8h-11.6
				C409.3,460.7,408.9,460.4,408.9,459.9z"/>
		</g>
	</g>
</g>
</svg>
